# xmcd
#
# Track frame offsets:
#	150
#	18140
#	33452
#	46842
#	58744
#	72914
#	85652
#	96501
#	107802
#	125807
#	141339
#	159888
#
# Disc length: 2576 seconds
#
# Revision: 0
# Processed by: cddbd v1.5.2PL0 Copyright (c) Steve Scherf et al.
# Submitted via: dBpowerAMP V4.0
#
DISCID=a00a0e0c
DTITLE=The Happy Couple - Happy Times And Petty Crimes
DYEAR=2006
DGENRE=Indie Pop
TTITLE0=Song For The Troubadour
TTITLE1=Another Sunny Day
TTITLE2=French Cinema Summer Love
TTITLE3=Hopeless Case
TTITLE4=The Pop Kid
TTITLE5=Treason
TTITLE6=Boyfriend Of The Week
TTITLE7=The Dream Inspires
TTITLE8=Don't Call It
TTITLE9=All The Time
TTITLE10=Song For The Troubadour (Erobique's Disco Mix)
TTITLE11=Song For The Troubadour (Stansted Version)
EXTD=Quince Records (Japan)
EXTT0=
EXTT1=
EXTT2=
EXTT3=
EXTT4=
EXTT5=
EXTT6=
EXTT7=
EXTT8=
EXTT9=
EXTT10=
EXTT11=
PLAYORDER=
